<svg fill="none" height="20" viewBox="0 0 137 20" width="137" xmlns="http://www.w3.org/2000/svg"><g fill="#e6e6e6"><path d="m9.975 19.2992c1.3833 0 2.6667-.2416 3.85-.725 1.1833-.4833 2.2167-1.1583 3.1-2.025.8833-.8666 1.5667-1.8833 2.05-3.05.5-1.1833.75-2.4583.75-3.82498 0-1.38333-.25-2.65833-.75-3.825-.4833-1.16667-1.1667-2.175-2.05-3.025-.8833-.86667-1.9167-1.54167-3.1-2.025002-1.1833-.483333-2.4667-.7249992-3.85-.7249992-1.38333 0-2.66667.2416662-3.85.7249992-1.18333.483332-2.21667 1.158332-3.1 2.025002-.86667.85-1.55 1.85833-2.05 3.025-.483333 1.16667-.725 2.44167-.725 3.825 0 1.36668.241667 2.64168.725 3.82498.5 1.1667 1.19167 2.1834 2.075 3.05.88333.8667 1.91667 1.5417 3.1 2.025 1.18333.4834 2.45833.725 3.825.725zm0-3.1c-1.2 0-2.28333-.2833-3.25-.85-.95-.5666-1.7-1.3416-2.25-2.325-.55-.9833-.825-2.1-.825-3.34998 0-1.25.275-2.35833.825-3.325.55-.98333 1.3-1.75833 2.25-2.325.96667-.56667 2.05-.85 3.25-.85 1.2167 0 2.3.28333 3.25.85s1.7 1.34167 2.25 2.325c.55.96667.825 2.075.825 3.325 0 1.24998-.275 2.36668-.825 3.34998-.55.9834-1.3 1.7584-2.25 2.325-.95.5667-2.0333.85-3.25.85z"/><path d="m22.7482 18.9992h7.85c2.0834 0 3.7084-.5 4.875-1.5 1.1834-1.0166 1.775-2.4166 1.775-4.2 0-.85-.1666-1.65-.5-2.4-.3333-.75-.9166-1.39165-1.75-1.92498.5167-.46667.8917-.98333 1.125-1.55.25-.56667.375-1.16667.375-1.8 0-1.63333-.525-2.91667-1.575-3.85-1.05-.933335-2.4916-1.400002-4.325-1.400002h-7.85zm3.4-11.39998v-4.325h4.625c.7 0 1.2584.19167 1.675.575.4167.38333.625.9.625 1.55s-.2083 1.18333-.625 1.6c-.4166.4-.975.6-1.675.6zm0 8.39998v-5.425h4.8c.8834 0 1.5834.25 2.1.75.5334.4834.8 1.1417.8 1.975 0 .8167-.2666 1.475-.8 1.975-.5166.4834-1.2166.725-2.1.725z"/><path d="m46.6834 19.2992c1.2833 0 2.4083-.2333 3.375-.7.9667-.4666 1.725-1.1083 2.275-1.925.55-.8166.825-1.7583.825-2.825 0-2.4833-1.4833-4.19998-4.45-5.14998l-3.425-1.075c-.6667-.21667-1.175-.51667-1.525-.9-.3333-.4-.5-.85833-.5-1.375 0-.68333.2583-1.23333.775-1.65.5333-.43333 1.2333-.65 2.1-.65.9667 0 1.8167.25833 2.55.775.7333.5 1.2833 1.21667 1.65 2.15l2.8-1.25c-.5-1.4-1.375-2.525-2.625-3.375-1.2333-.850001-2.6917-1.2750012-4.375-1.2750012-1.2167 0-2.3.2333332-3.25.7000002-.9333.450001-1.6667 1.083331-2.2 1.900001-.5167.81667-.775 1.75833-.775 2.825 0 1.21667.3667 2.275 1.1 3.175.7333.88333 1.825 1.55838 3.275 2.02498l3.575 1.15c.65.2167 1.1333.5 1.45.85.3333.35.5.8.5 1.35 0 .6834-.275 1.2334-.825 1.65-.5333.4167-1.2417.625-2.125.625-1.0667 0-2.025-.3-2.875-.9-.85-.6166-1.5-1.4583-1.95-2.525l-2.825 1.225c.3333 1.0334.8583 1.9417 1.575 2.725.7333.7667 1.6 1.3667 2.6 1.8 1.0167.4334 2.1167.65 3.3.65z"/><path d="m56.2199 18.9992h3.4v-18.624982h-3.4z"/><path d="m63.2023 18.9992h6.075c1.9667 0 3.675-.4 5.125-1.2 1.4667-.8 2.6-1.9 3.4-3.3s1.2-3.0083 1.2-4.82498c0-1.83333-.4-3.44167-1.2-4.825-.8-1.4-1.925-2.49167-3.375-3.275-1.45-.800002-3.1666-1.200002-5.15-1.200002h-6.075zm3.4-3v-12.62498h2.75c1.2667 0 2.3584.25833 3.275.775.9334.51667 1.6584 1.25 2.175 2.2.5167.93333.775 2.04167.775 3.325 0 1.28338-.2583 2.39998-.775 3.34998-.5.95-1.2166 1.6834-2.15 2.2-.9333.5167-2.0333.775-3.3.775z"/><path d="m81.7082 18.9992h3.4v-18.624982h-3.4z"/><path d="m87.1656 18.9992h3.675l1.35-4h7.2l1.3254 4h3.7l-6.4254-18.624982h-4.4zm6-7 2.625-7.84998 2.625 7.84998z"/><path d="m106.488 18.9992h3.4v-12.17498l8.85 12.17498h2.675v-18.624982h-3.4v11.949982l-8.875-11.949982h-2.65z"/><path d="m136.861 4.86301c.093.04567.139.11416.139.20548 0 .04567-.046.09133-.139.13699-1.481.59361-2.477 1.14155-2.986 1.64384-.509.50228-1.065 1.50684-1.667 3.01369-.092.09133-.162.13699-.208.13699-.139 0-.208-.04566-.208-.13699-.556-1.50685-1.111-2.53424-1.667-3.08219-.556-.5936-1.551-1.16438-2.986-1.71233-.093-.04566-.139-.09132-.139-.13698 0-.09133.046-.15982.139-.20548 1.481-.59361 2.477-1.14155 2.986-1.64384.556-.54794 1.111-1.52968 1.667-2.945203.046-.0913248.115-.136987.208-.136987s.162.0456622.208.136987c.602 1.506853 1.158 2.534243 1.667 3.082193.556.54794 1.551 1.09589 2.986 1.64383z"/></g></svg>